<svg width="111" height="40" viewBox="0 0 111 40" fill="none" xmlns="http://www.w3.org/2000/svg">
    <g clip-path="url(#clip0_2408_704)">
        <path d="M47.7644 21.4296H54.3948V24.1574H47.7644V21.4296ZM48.0012 29.5082H44.8044V14.8197H55.2434V17.5476H48.0012V29.5082ZM57.1905 29.5082V18.2191H60.2689V29.5082H57.1905ZM58.7297 16.6453C58.164 16.6453 57.7036 16.4704 57.3484 16.1207C56.9932 15.771 56.8156 15.3373 56.8156 14.8197C56.8156 14.3021 56.9932 13.8684 57.3484 13.5187C57.7036 13.169 58.164 12.9941 58.7297 12.9941C59.2954 12.9941 59.7558 13.162 60.111 13.4977C60.4662 13.8195 60.6438 14.2392 60.6438 14.7568C60.6438 15.3023 60.4662 15.757 60.111 16.1207C59.769 16.4704 59.3086 16.6453 58.7297 16.6453ZM69.579 18.0512C70.4208 18.0512 71.1706 18.233 71.8286 18.5968C72.4996 18.9465 73.0256 19.492 73.4073 20.2335C73.7884 20.9609 73.9796 21.8982 73.9796 23.0453V29.5082H70.9012V23.5489C70.9012 22.6396 70.71 21.9681 70.3289 21.5345C69.9601 21.1008 69.4341 20.884 68.7502 20.884C68.2631 20.884 67.8228 20.9959 67.4281 21.2197C67.0464 21.4296 66.7436 21.7583 66.5204 22.2059C66.3095 22.6536 66.2046 23.2271 66.2046 23.9266V29.5082H63.1262V18.2191H66.0665V21.3456L65.514 20.4014C65.8951 19.6459 66.4414 19.0654 67.1518 18.6597C67.8622 18.254 68.6713 18.0512 69.579 18.0512ZM82.1159 29.6761C80.9053 29.6761 79.8397 29.4243 78.9191 28.9207C78.0113 28.4171 77.3071 27.7316 76.8076 26.8643C76.3075 25.983 76.0577 24.9828 76.0577 23.8636C76.0577 22.7305 76.3007 21.7303 76.7879 20.863C77.2874 19.9817 77.9651 19.2962 78.8204 18.8066C79.6751 18.303 80.642 18.0512 81.7212 18.0512C82.7603 18.0512 83.6945 18.289 84.5233 18.7646C85.3651 19.2263 86.0292 19.8977 86.5164 20.7791C87.0029 21.6464 87.2465 22.6886 87.2465 23.9056C87.2465 24.0315 87.2397 24.1784 87.2268 24.3463C87.2132 24.5002 87.2003 24.6471 87.1873 24.7869H78.5639V22.8774H85.5686L84.3852 23.444C84.3852 22.8564 84.273 22.3458 84.0497 21.9122C83.8259 21.4785 83.5169 21.1428 83.1223 20.905C82.7276 20.6532 82.2669 20.5273 81.7409 20.5273C81.2143 20.5273 80.7475 20.6532 80.3399 20.905C79.9452 21.1428 79.6356 21.4855 79.4124 21.9332C79.1885 22.3668 79.0769 22.8844 79.0769 23.4859V23.9896C79.0769 24.6051 79.2015 25.1507 79.4519 25.6263C79.7146 26.0879 80.0765 26.4446 80.5372 26.6964C81.0108 26.9343 81.5633 27.0532 82.1948 27.0532C82.7603 27.0532 83.2536 26.9622 83.6748 26.7804C84.1089 26.5985 84.5036 26.3257 84.8588 25.962L86.4967 27.8505C86.0095 28.4381 85.3978 28.8927 84.6615 29.2145C83.9245 29.5222 83.076 29.6761 82.1159 29.6761ZM92.4426 29.5082L87.9236 14.8197H91.2388L95.1658 27.8295H93.5082L97.6127 14.8197H100.573L104.519 27.8295H102.921L106.947 14.8197H110.005L105.486 29.5082H102.053L98.5599 18.0932H99.4676L95.8762 29.5082H92.4426Z"
              fill="#105D38"/>
        <path fill-rule="evenodd" clip-rule="evenodd"
              d="M37.047 4.20768C37.047 2.06493 35.4133 0.327881 33.398 0.327881H4.06708C2.05238 0.327881 0.418701 2.06493 0.418701 4.20768V13.9726C0.418701 16.1154 2.05238 17.8524 4.06708 17.8524H33.398C35.4133 17.8524 37.047 16.1154 37.047 13.9726V4.20768Z"
              fill="#105D38"/>
        <path fill-rule="evenodd" clip-rule="evenodd"
              d="M37.8621 25.9393C37.8621 23.7966 36.2284 22.0596 34.2132 22.0596C31.4828 22.0596 27.7645 22.0596 25.0338 22.0596C23.0189 22.0596 21.3853 23.7966 21.3853 25.9393C21.3853 28.844 21.3853 32.7996 21.3853 35.7043C21.3853 37.847 23.0189 39.584 25.0338 39.584C27.7645 39.584 31.4828 39.584 34.2132 39.584C36.2284 39.584 37.8621 37.847 37.8621 35.7043C37.8621 32.7996 37.8621 28.844 37.8621 25.9393Z"
              fill="#4CD080"/>
        <path fill-rule="evenodd" clip-rule="evenodd"
              d="M16.8956 30.8196C16.8956 25.9817 13.2072 22.0596 8.65738 22.0596C4.10753 22.0596 0.418701 25.9817 0.418701 30.8196C0.418701 30.8211 0.418701 30.8225 0.418701 30.824C0.418701 35.6619 4.10704 39.584 8.65689 39.584C13.2067 39.584 16.8956 35.6619 16.8956 30.824C16.8956 30.8225 16.8956 30.8211 16.8956 30.8196Z"
              fill="#FFAE58"/>
    </g>
    <defs>
        <clipPath id="clip0_2408_704">
            <rect width="111" height="40" fill="white"/>
        </clipPath>
    </defs>
</svg>
