<svg xmlns="http://www.w3.org/2000/svg" version="1.1" xmlns:xlink="http://www.w3.org/1999/xlink" xmlns:svgjs="http://svgjs.dev/svgjs" width="62" height="61"><svg width="62" height="61" viewBox="0 0 62 61" fill="none" xmlns="http://www.w3.org/2000/svg">
<path fill-rule="evenodd" clip-rule="evenodd" d="M60.0763 6.41669C60.0763 3.149 57.427 0.5 54.159 0.5H6.59537C3.32828 0.5 0.679077 3.149 0.679077 6.41669V21.3082C0.679077 24.5759 3.32828 27.2249 6.59537 27.2249H54.159C57.427 27.2249 60.0763 24.5759 60.0763 21.3082V6.41669Z" fill="#105D38"></path>
<path fill-rule="evenodd" clip-rule="evenodd" d="M61.398 39.5575C61.398 36.2899 58.7488 33.6409 55.4809 33.6409C51.0532 33.6409 45.0235 33.6409 40.5954 33.6409C37.3279 33.6409 34.6788 36.2899 34.6788 39.5575C34.6788 43.9871 34.6788 50.0195 34.6788 54.4491C34.6788 57.7167 37.3279 60.3657 40.5954 60.3657C45.0235 60.3657 51.0532 60.3657 55.4809 60.3657C58.7488 60.3657 61.398 57.7167 61.398 54.4491C61.398 50.0195 61.398 43.9871 61.398 39.5575Z" fill="#4CD080"></path>
<path fill-rule="evenodd" clip-rule="evenodd" d="M27.3983 47C27.3983 39.6221 21.4172 33.6409 14.0391 33.6409C6.66096 33.6409 0.679077 39.6221 0.679077 47C0.679077 47.0022 0.679077 47.0044 0.679077 47.0066C0.679077 54.3845 6.66016 60.3657 14.0383 60.3657C21.4164 60.3657 27.3983 54.3845 27.3983 47.0066C27.3983 47.0044 27.3983 47.0022 27.3983 47Z" fill="#FFAE58"></path>
</svg><style>@media (prefers-color-scheme: light) { :root { filter: none; } }
@media (prefers-color-scheme: dark) { :root { filter: none; } }
</style></svg>