<svg width="24" height="25" viewBox="0 0 24 25" fill="none" xmlns="http://www.w3.org/2000/svg">
<path d="M20.25 5.01479H18V4.25371C17.9994 3.64835 17.7621 3.06796 17.3403 2.6399C16.9185 2.21185 16.3465 1.97109 15.75 1.97046H8.25C7.65345 1.97109 7.08152 2.21185 6.65969 2.6399C6.23787 3.06796 6.00062 3.64835 6 4.25371V5.01479H3.75C2.95462 5.01568 2.19206 5.3367 1.62964 5.90743C1.06722 6.47817 0.750869 7.25199 0.75 8.05913V20.2365C0.75 21.0439 1.06607 21.8182 1.62868 22.3891C2.19129 22.9601 2.95435 23.2808 3.75 23.2808H20.25C21.0456 23.2808 21.8087 22.9601 22.3713 22.3891C22.9339 21.8182 23.25 21.0439 23.25 20.2365V8.05913C23.2491 7.25199 22.9328 6.47817 22.3704 5.90743C21.8079 5.3367 21.0454 5.01568 20.25 5.01479ZM15.75 14.9089H12.75V17.9532C12.75 18.1551 12.671 18.3487 12.5303 18.4914C12.3897 18.6341 12.1989 18.7143 12 18.7143C11.8011 18.7143 11.6103 18.6341 11.4697 18.4914C11.329 18.3487 11.25 18.1551 11.25 17.9532V14.9089H8.25C8.05109 14.9089 7.86032 14.8287 7.71967 14.686C7.57902 14.5432 7.5 14.3497 7.5 14.1478C7.5 13.9459 7.57902 13.7524 7.71967 13.6096C7.86032 13.4669 8.05109 13.3867 8.25 13.3867H11.25V10.3424C11.25 10.1405 11.329 9.94694 11.4697 9.80421C11.6103 9.66148 11.8011 9.5813 12 9.5813C12.1989 9.5813 12.3897 9.66148 12.5303 9.80421C12.671 9.94694 12.75 10.1405 12.75 10.3424V13.3867H15.75C15.9489 13.3867 16.1397 13.4669 16.2803 13.6096C16.421 13.7524 16.5 13.9459 16.5 14.1478C16.5 14.3497 16.421 14.5432 16.2803 14.686C16.1397 14.8287 15.9489 14.9089 15.75 14.9089ZM16.5 5.01479H7.5V4.25371C7.5 4.05186 7.57902 3.85827 7.71967 3.71554C7.86032 3.57281 8.05109 3.49263 8.25 3.49263H15.75C15.9489 3.49263 16.1397 3.57281 16.2803 3.71554C16.421 3.85827 16.5 4.05186 16.5 4.25371V5.01479Z" fill="#FF3F3F"/>
</svg>
